<svg xmlns="http://www.w3.org/2000/svg" width="1366" height="321" viewBox="0 0 1366 321">
  <g id="_5" data-name="5" transform="translate(0 -5208)">
    <g id="caminando_de_la_mano" data-name="caminando de la mano" transform="translate(50.929 5273.015)">
      <path id="Trazado_186" data-name="Trazado 186" d="M141.06,221.74c1.13,1.51,2.26,3.01,3.39,4.52a1.638,1.638,0,0,0,.9.69,1.564,1.564,0,0,0,1.16-.15,1.494,1.494,0,0,0,.69-.9,1.419,1.419,0,0,0-.15-1.16c-1.13-1.51-2.26-3.01-3.39-4.52a1.638,1.638,0,0,0-.9-.69,1.564,1.564,0,0,0-1.16.15,1.494,1.494,0,0,0-.69.9,1.419,1.419,0,0,0,.15,1.16Z" fill="#010101"/>
      <g id="ChNsqH.tif">
        <g id="Grupo_72" data-name="Grupo 72">
          <path id="Trazado_187" data-name="Trazado 187" d="M693.03,124.67c-9.09,26.77-29.42,35.61-55.1,35.45,8.69,10.31,17.5,20.78,26.37,31.3.28-.48.8-1.37,1.3-2.27,2.6-4.59,5.6-8.88,10-11.91a4.551,4.551,0,0,1,3.51-.15c2.21.76,4.21,2.2,6.45,2.83,3.35.95,4.72,3.13,3.3,6.33a17.941,17.941,0,0,1-2.11,3.37c-4.95,6.69-9.86,13.4-14.94,19.99a27.877,27.877,0,0,1-5.45,5.4,6.724,6.724,0,0,1-8.37-.19,7.087,7.087,0,0,1-2.35-7.62,4.017,4.017,0,0,0-.87-2.97c-10.97-13.39-22.04-26.69-33.01-40.08-1.97-2.4-3.6-5.08-5.4-7.62a1.652,1.652,0,0,0-.71-.6c-3.86-1.42-7.72-2.82-11.12-4.05-2.13,9.27-3.89,18.71-6.54,27.9-2.17,7.54-5.28,14.83-8.2,22.14-1.54,3.86-3.72,4.45-7.29,2.25a68.883,68.883,0,0,1-23.8-24.06c-.38-.64-.75-1.29-1-1.7-4.53,3.5-8.98,7.06-13.56,10.42-2.01,1.47-4.14,3.32-6.82.67-.55-.54-2.08-.07-3.15-.12-2.85-.15-3.93-1.96-2.92-4.6a32.662,32.662,0,0,0,.7-3.49,11.927,11.927,0,0,1,1.1-3.5,113.116,113.116,0,0,1,23.45-27.05,15.065,15.065,0,0,1,4.29-2.48c3.09-1.18,6.19.64,6.29,3.94.18,6.04,3.18,10.57,7.21,14.58,3.36,3.34,6.96,6.44,10.75,9.92,1.73-7.1,3.55-14.57,5.33-21.85-15.31-6.22-20.78-19.13-24.59-32.99-3.53-12.86-2.85-25.83.56-38.68.17-.63.3-1.26.5-2.14-11.73-.51-23.26-2.07-34.8-.48-3.67.51-7.21,1.95-10.87,2.62a16.163,16.163,0,0,1-6.12-.13c-4.54-.96-5.49-3.86-2.77-7.65.13-.19.24-.39.73-1.24-13.02.43-25.58.85-37.28,1.24-1.63,8.96-2.59,17.15-4.69,25.04a49.328,49.328,0,0,1-16.15,25.78c-7.9,6.58-17.23,10.07-27.16,12.2-.72.16-1.44.34-2.54.6,3.04,3.91,5.84,7.68,8.81,11.31,6.49,7.92,13.09,15.74,19.57,23.67,1.27,1.56,2.42,1.71,4.02.7,4.86-3.05,9.72-6.09,14.63-9.05a29.293,29.293,0,0,1,5.76-2.89c3.68-1.22,6.73.52,8.2,4.07,1.1,2.66,2.46,5.23,3.78,7.8a5.145,5.145,0,0,1-.27,5.86,13.886,13.886,0,0,1-3.18,3.13c-6.19,4.06-12.37,8.13-18.72,11.93a27.084,27.084,0,0,1-8.05,3.21c-8.09,1.73-13.19-.81-17.93-7.98-6.09-9.22-12.13-18.5-18.64-27.43-5.44-7.45-11.49-14.46-17.39-21.56a7.229,7.229,0,0,0-3.51-1.86c-3.34-.97-6.8-1.57-10.1-2.65a5.743,5.743,0,0,0-4.1.33c-4.31,1.46-5.55,4.24-6.08,8.69-1.52,12.64-6.76,23.87-14.76,33.81-2.08,2.58-3.92,5.35-5.84,8.06a9.854,9.854,0,0,0-.74,1.71c5.46,0,10.61.03,15.75-.01,2.81-.02,5.34.28,6.41,3.51.2.6,1.08.97,1.63,1.46,1.89,1.69,1.59,3.89-.75,4.94-1.2.54-2.5.86-3.91,1.34.61,3.16-1.22,4.38-3.92,5.18a76.2,76.2,0,0,1-41.58.72c-4.21-1.09-5.49-4.36-2.93-7.9.94-1.3,2.52-2.11,3.68-3.27,1.62-1.61,3.56-3.1,4.61-5.04,6.56-12.12,13.04-24.29,19.25-36.59,2.14-4.25,3.42-8.94,5.14-13.56-1.65-.76-2.93-1.3-4.17-1.92-7.23-3.65-12.49-9.37-16.42-16.29-6.81-12-11.64-24.72-13.31-38.76-7.18.86-14.24,1.81-21.33,2.53-13.07,1.34-26.15,2.56-39.23,3.78a63.269,63.269,0,0,1-9.22.44,79.43,79.43,0,0,1-8.72-1.39,11.167,11.167,0,0,0-1.73-.19H216.42c-.41,0-.82.08-1.45.14,0,10.18-4.05,19.02-9.2,27.46a78.661,78.661,0,0,1-19.62,21.92c5.02,7.4,9.94,14.69,14.89,21.97,5.1,7.49,10.36,14.89,15.3,22.48,3.6,5.52,8.38,8.18,15,8.13a70.356,70.356,0,0,1,12.37,1.05,12.343,12.343,0,0,1,8.29,5.54,5.322,5.322,0,0,1,.74,1.28c.62,2.08-2.85,7.67-5,8.13-.89.19-1.77.4-2.82.63-.23,4.17-2.89,6.42-6.73,6.54-7.88.25-15.8,1.41-23.65-.28-6-1.29-10.38-4.46-11.5-10.89a12.977,12.977,0,0,0-4.83-7.91c-10.09-8.36-17.05-18.93-22.5-30.72a123.66,123.66,0,0,0-8.01-14c-1.32-2.09-3.49-3.07-6.09-3.8-5.07-1.43-9.65-1.93-14.63.62-2.67,1.37-6.12,1.22-9.43,1.8-.55,5.24-.98,10.6-1.7,15.92-1.91,14.15-3.69,28.32-6.04,42.4-1.28,7.68-5.54,10.75-13.38,10.52-11.23-.33-22.46-.92-33.68-1.53-3.2-.17-6.35-1.02-8.41-3.72-.68-.89-.64-2.35-.88-3.56-.04-.19.35-.54.28-.65-2.55-3.89,1.04-6.4,2.11-9.47,1.29-3.74,5.05-5.32,10.25-4.22s10.38,2.24,15.57,3.38c2.79.61,3.84.26,4.26-2.58.62-4.17.6-8.44.96-12.65.57-6.62,1.03-13.26,1.9-19.84.85-6.48,2.16-12.9,3.32-19.64A67.6,67.6,0,0,1,85,121.63c-7.14-9.7-11.12-20.66-12.46-33.07-11.76,9.57-25.86,13.43-38.67,19.86-8.69,4.37-16.29,9.93-21.5,18.41a10.613,10.613,0,0,1-4.6,3.97c-3.71,1.57-7.02-1.2-6.88-5.24a30.055,30.055,0,0,0-.43-4.52c-.08-.66-.52-1.38-.35-1.94,1.23-4.12.18-8.38.88-12.53.31-1.88.73-3.74.99-5.63.71-5.25,4.97-7.8,9.77-5.62a5.519,5.519,0,0,0,5.18-.25Q43.81,81.975,70.76,69.01c1.6-.77,1.86-1.95,2.06-3.33A72.025,72.025,0,0,1,94.54,23.51c12.8-12.48,28.44-19.41,45.93-22.29,10.17-1.68,20.4-1.82,30.49.67,10.04,2.47,17.2,9.1,23.47,16.88a95.389,95.389,0,0,1,20.5,46.64c.11.74.32,1.46.51,2.3a6.2,6.2,0,0,0,1.18.2q17.985-.435,35.97-.9a6.192,6.192,0,0,0,4.64-2.14c1.36-1.41,3.99-2.13,6.09-2.2,16.57-.5,33.14-.81,49.71-1.09,6.73-.11,13.46-.02,20.28-.02.8-10.69,3.95-19.85,9.81-28.01,8.95-12.45,21.16-20.51,35.29-25.88A107.867,107.867,0,0,1,411.47.83c6.67-.34,13.21.81,18.94,4.36,10.24,6.35,20.46,12.78,30.38,19.61,8.54,5.88,11.94,14.82,12.94,24.82.22,2.22.45,4.45.7,7.02,1.96-.16,3.91-.4,5.86-.47,12-.49,23.97-.32,35.84,1.77a3.221,3.221,0,0,0,1.95-.02c4.72-2.82,9.04-1.02,13.47.87,4.03,1.73,8.06,3.72,12.3,4.61,7.06,1.47,14.29,2.15,21.45,3.15a31.014,31.014,0,0,1,4.44.62c1.89.56,2.64-.13,3.58-1.77,3.07-5.32,6.24-10.6,9.72-15.65,5.83-8.45,14.26-13.43,23.62-17.21,12.59-5.08,25.39-9.07,39.16-8.38,13.79.69,26.43,4.77,37.32,13.56A40.382,40.382,0,0,1,696.42,56.4c3.15,9.41,5.94,18.98,8.23,28.64A33.924,33.924,0,0,1,702.51,107a7.039,7.039,0,0,0-.27,1c5.64.5,10.87-.89,15.95-2.71,8.2-2.94,16.33-6.11,24.46-9.24a4.148,4.148,0,0,0,2.05-1.56,8.054,8.054,0,0,1,7.06-4.44c7.89-.09,15.79.15,23.69.21q17.235.135,34.47.18a28.486,28.486,0,0,0,3.14-.33c.16-5.48,2.38-10.33,3.81-15.37,4.47-15.68,14.67-26.71,28.38-34.92,3.57-2.13,7.12-4.32,10.52-6.69,7.64-5.33,16.33-7.42,25.38-7.93,13.33-.76,26.51.59,38.95,5.64,15.08,6.12,24.46,17.92,30.4,32.67,1.42,3.52,2.28,7.27,3.47,10.89a3.355,3.355,0,0,0,1.22,1.89c12.25,6.14,21.74,15.54,30.42,25.84,5.47,6.49,10.73,13.16,16.13,19.7a63.256,63.256,0,0,0,4.61,4.94c2.5,2.43,2.17,6.34-.73,8.75a8.378,8.378,0,0,0-1.73,2.43c-2.21,3.99-5.71,6.84-9.36,9.17-2.65,1.69-6.83-.27-8.72-3.52a47.711,47.711,0,0,1-3.42-7.97c-3.82-10.79-11.21-18.94-19.49-26.41-2.46-2.22-5.07-4.27-7.98-6.72-3.91,22.69-14.89,39.91-36.47,50.08q20.715,20.28,40.47,39.62c3.88-3.89,7.35-7.51,10.98-10.95,1.42-1.35,2.9-1.05,5.02-.54a20.543,20.543,0,0,1,6.44,3.09c2.22,1.38,2.59,2.81,2.09,4.9a26.226,26.226,0,0,1-7.58,12.63c-5.63,5.55-11.4,10.96-17.18,16.36-2.75,2.57-5.41,2.49-8.01-.51-5.62-6.47-11.06-13.1-16.57-19.66q-15.72-18.75-31.41-37.53a3.783,3.783,0,0,0-3.58-1.59,46.2,46.2,0,0,1-22.22-3.36,4.839,4.839,0,0,0-2.57.12,14.752,14.752,0,0,1-2.37.7c-4.13.02-5.21,2.3-5.8,6.12a122.8,122.8,0,0,1-12.67,37.84c-.21.41-.33.86-.57,1.48a46.5,46.5,0,0,1,5.55-.98,25.593,25.593,0,0,1,4.3.56,9.993,9.993,0,0,0,2.31.13c3.22-.32,6.42-.94,9.64-1.01,3.24-.07,4.28,2.08,2.89,5.07a10.294,10.294,0,0,0-.86,3.46,5.687,5.687,0,0,1-4.51,5.34c-6.61,1.9-13.22,3.87-19.94,5.35-5.91,1.3-11.95,2.07-17.96,2.87-3.59.48-7.11.2-10.16-2.25-3.54-2.83-4.13-6.69-1.44-10.52,3.86-5.51,8.03-10.83,11.51-16.58A104.267,104.267,0,0,0,847.5,156.2a6.913,6.913,0,0,0,0-.92c-22.31-7.02-33.04-23.59-37.33-45.66-8.73,1.19-17.6,2.39-26.47,3.61-11.11,1.53-22.22,3.13-33.34,4.6a9.539,9.539,0,0,1-7.73-2.06,2.612,2.612,0,0,0-2.12-.4,166.129,166.129,0,0,1-32.9,7.79c-4.87.61-9.76.99-14.57,1.47ZM255.22,79.94c.67.88,1.25,1.31,1.33,1.81.42,2.98,2.3,3.27,4.84,3.06,8.21-.66,16.46-.96,24.65-1.78,12.57-1.25,25.11-2.89,37.67-4.2q17.355-1.815,34.75-3.23c6.54-.53,13.12-.6,19.68-1.01,5.97-.37,11.93-1.02,17.91-1.36,2.61-.15,3.79.97,3.7,2.96-.11,2.35-1.74,2.66-3.65,2.81-6.21.48-12.4,1.16-18.61,1.53-5.46.33-10.95.21-16.41.54-8.37.51-16.73,1.23-25.07,1.86a8.213,8.213,0,0,0-.1,1.07c1.5,13.01,6.2,24.93,12.69,36.16,4.51,7.79,10.52,13.93,19.98,15.53,5.29.89,10.35.36,14.11-1.56-2.35-2.85-4.91-5.78-7.29-8.85-5.3-6.86-7.83-14.56-6.62-23.27.22-1.62.58-3.42,2.91-3.24,1.91.15,2.88,1.61,2.59,4-1.04,8.77,2.1,16.02,8.3,22.01,2.51,2.43,4.92,5.29,8.96,5.29.41,0,.82.5,1.24.77,1.1.69,2.13,1.79,3.31,1.97,5.23.81,10.52,2.02,15.75,1.84a90.174,90.174,0,0,0,17.93-2.72c13.22-3.2,24.44-9.5,31.25-21.95a60.023,60.023,0,0,0,7.56-27.11c.33-10.54.11-21.12-.48-31.65-.5-9.09-3.5-17.33-11.61-22.65-9.17-6.02-18.39-12-27.72-17.77a29.744,29.744,0,0,0-16.69-4.24A92.753,92.753,0,0,0,368.3,18.58c-11.05,6.24-19.85,14.79-25.23,26.48a37.535,37.535,0,0,0-3.85,15.93c1.43,0,2.66.02,3.89,0q18.615-.435,37.22-.88c.92-.02,2.01-.32,2.71.08,1.02.58,2.49,1.73,2.42,2.53-.08,1.04-1.39,2.08-2.35,2.9-.41.35-1.29.16-1.95.17q-23.82.5-47.64.99c-15.32.31-30.64.66-45.97.91-6.98.11-13.97.02-20.95.02l.4.85c-.9,1.41-1.8,2.83-2.95,4.63.6,2.82-.65,4.51-4.47,5.39-1.34.31-2.64.83-4.35,1.38ZM209.38,67.65a25.8,25.8,0,0,0-.2-2.66A93.092,93.092,0,0,0,189.2,21.32C182.31,12.84,173.99,7,162.77,6.17c-15.01-1.11-29.61.7-43.29,7.21-20.73,9.86-34.7,25.51-40.32,48.14-1.14,4.59-.93,9.15-.9,13.76.03,5.3-.48,10.69.25,15.9a60.858,60.858,0,0,0,47.01,50.71c3.3.73,6.95-.05,10.24.7,4.27.98,8.01-.18,11.85-1.5a3.884,3.884,0,0,0,1.68-.96c2.54-3,2.59-3.15,6.01-1.31a18.807,18.807,0,0,0,18.29.27c17.92-8.9,28.67-23.7,34.67-42.32.79-2.44.8-5.13,1.2-7.93-4.45,0-8.36.07-12.27-.03-1.78-.05-3.01-.95-2.9-2.99.1-1.87,1.3-2.56,2.98-2.7.66-.05,1.33-.02,2-.02h50.16c-1.09-3.57.28-5.96,2.92-7.95.6-.45.74-1.51,1.19-2.52h-2.08q-28.59.4-57.18.81a6.357,6.357,0,0,1-3.15-.42,3.607,3.607,0,0,1-1.69-2.58,3.946,3.946,0,0,1,1.83-2.52c.66-.44,1.77-.25,2.68-.25,5.06-.02,10.12,0,15.43,0Zm606.55,41.22c.24,1.37.36,2.35.59,3.3,4.73,19.24,14.66,33.72,35.37,38.14,8.71,1.86,17.28,1.9,25.3-2.82,1.94-1.15,3.83-.4,4.15,1.8a2.168,2.168,0,0,0,2.12,2.17c4.19.53,8.38,1.07,12.59,1.44a2.931,2.931,0,0,0,2.04-1.18c1.44-1.87,2.86-2.28,4.3-.63,1.16,1.34,2.18,1.12,3.48.58,2.76-1.15,5.54-2.25,8.29-3.41,20.94-8.87,31.82-25.29,35.22-47.19.45-2.9-2.13-6.08.66-8.87q-.39-7.02-.79-14.04c-5.07,5.4-11.04,6.5-17.49,5.28a67.444,67.444,0,0,1-10.33-3.31,2.247,2.247,0,0,1-1.13-3.51A15.546,15.546,0,0,1,924.26,72c6.2-4.23,12.85-7.28,21.15-6.21-1.36-2.76-2.45-5.26-3.77-7.62-6.56-11.71-15.74-20.44-28.97-23.97-11.14-2.97-22.53-4.71-34.06-3-5.28.78-10.81,1.86-15.49,4.24-7.22,3.68-13.84,8.57-20.67,13.01-14.84,9.64-20.21,24.77-23.87,41.2a40.32,40.32,0,0,0,4.37-.37c6.2-1.16,12.38-2.4,18.56-3.62,2.39-.47,4.7,1.33,3.82,3.26a5.489,5.489,0,0,1-3.31,2.46c-15.31,4.11-31,5.04-46.75,4.9-13.22-.12-26.43-.75-39.65-1.14a13.045,13.045,0,0,0-2.18.35c.96,3.02-1.1,4.43-2.66,5.9.39,1.63,1,3.68.23,4.65-.9,1.14-2.98,1.35-4.4,1.91.35,1.42.67,2.72,1.06,4.29,1.68-.14,3.41-.22,5.12-.45,9.22-1.24,18.44-2.52,27.66-3.78q17.28-2.355,34.58-4.68c6.26-.85,12.51-1.75,18.76-2.58,1.65-.22,3.22.3,3.42,2.07a4.816,4.816,0,0,1-1.37,3.1c-.43.5-1.54.45-2.36.57-5.75.79-11.5,1.57-17.55,2.38Zm-72.05-7.1c-.75.26-1.51.5-2.25.77-6.92,2.58-13.81,5.24-20.76,7.74-7.58,2.72-15.33,4.52-23.46,3.24-4.83-.76-9.67-1.54-14.45-2.54-9.02-1.88-17.99-3.94-27-5.87-1.92-.41-2.79-1.43-2.38-3.33.41-1.92,1.8-2.44,3.59-2.19.33.05.64.18.96.25,11.6,2.5,23.21,4.96,34.8,7.51,1.92.42,3.02-.01,3.94-1.86a27.014,27.014,0,0,0,2.41-17.73c-1.81-8.83-4.16-17.58-6.84-26.19-4.14-13.25-13.33-21.86-26.06-27.06a61.961,61.961,0,0,0-41.75-2.16,186.238,186.238,0,0,0-21.66,8.08c-11.55,4.97-17.9,15-23.59,25.48-.81,1.49-.88,3.36-1.41,5.02a8.473,8.473,0,0,1-1.18,2.11,15.421,15.421,0,0,0-1.97,2.69,56.825,56.825,0,0,0-2.68,8.06,120.1,120.1,0,0,0-2.62,14.17,61.556,61.556,0,0,0,10.05,41.5,22.919,22.919,0,0,0,9.77,8.65c3.01,1.32,6.03,1.43,8.74-.29-1.74-3.14-3.7-5.95-4.95-9.05-3.03-7.5-2.39-15.32-1.28-23.11.24-1.65,1.1-2.94,3-2.51a3.084,3.084,0,0,1,2.57,3.67,95.443,95.443,0,0,0-.74,11.91c.36,8.37,3.61,15.25,11.87,18.59,14.23,5.75,28.9,9.07,44.31,6.13,13.68-2.61,24.53-9.53,31.28-22.04a66.865,66.865,0,0,0,2.72-6.65c-5.06-.27-9.63-.41-14.19-.79-7.67-.64-15.14-2.1-21.98-5.88-1.65-.91-2.67-2.1-1.61-4.02,1.01-1.84,2.54-1.95,4.24-.99,6.31,3.56,13.26,4.75,20.32,5.37a149.488,149.488,0,0,0,43.2-2.5c6.14-1.25,12.18-2.99,18.09-4.46-.46-7.04,5.96-6.48,8.9-9.72ZM84.21,210.71c11,.49,22.13,1.03,33.26,1.44,3.89.14,5.84-1.45,6.78-5.24a53.113,53.113,0,0,0,1.07-5.87q2.7-20.355,5.33-40.71c.5-3.91.76-7.85,1.11-11.56-4.93-1.06-9.53-2.05-14.81-3.19-1.38,10.6-2.92,21.17-4.09,31.78-.65,5.85-.55,11.78-1.06,17.66-.58,6.71-4.72,9.73-11.29,8.43-5.12-1.01-10.21-2.19-15.33-3.24a36.17,36.17,0,0,0-3.74-.32c4.13,3.56,4.22,4.34,1.38,6.95.46,1.26.89,2.46,1.4,3.87Zm159.24-12.77c.1-.25.21-.51.31-.76-4.1-.25-8.21-.82-12.3-.69-8.62.27-14.98-3.15-19.71-10.33-6.87-10.41-14.03-20.63-21.06-30.93q-4.62-6.78-9.23-13.54c-3.4,1.53-6.6,2.98-9.38,4.23,2.68,4.83,5.65,9.38,7.84,14.27,5.55,12.41,12.94,23.39,23.36,32.25a15.328,15.328,0,0,1,5.04,8.68c1.03,4.71,3.07,6.9,7.92,7.22,6.71.44,13.46.26,20.19.33a3.4,3.4,0,0,0,.94-.3c-2.59-3.83-1.94-4.67,4.39-6.14.61-1.53,1.15-2.9,1.7-4.28Zm664.21-40.71c15.82,18.86,31.51,37.57,47.37,56.48,7.07-7.87,15.86-13.63,20.86-21.43-1.27-1.29-2.17-2.2-3.55-3.6-3.87.81-4.2,1.03-7.07,5.67a31.241,31.241,0,0,0-1.55,2.84c-1.69,3.42-3.24,3.79-6.04,1.08q-20.55-19.86-41-39.84c-3.92-3.84-3.8-3.97-9.01-1.2Zm-495.3-16.58c.51.65.85,1.09,1.2,1.53,4.92,6.19,10.09,12.19,14.69,18.61,6.48,9.05,12.56,18.4,18.76,27.65,3.37,5.02,7.38,6.49,13.09,4.47a27.117,27.117,0,0,0,5.18-2.41c5.6-3.43,11.13-6.98,16.68-10.5.58-.37,1.1-.85,1.74-1.35-2.17-.9-3.12-2.22-2.41-4.41a1.82,1.82,0,0,0,.07-1.1c-.62-1.59-1.31-3.15-2.09-5-.76.43-1.98,1.08-3.15,1.8-5.45,3.35-10.81,6.86-16.35,10.05-4.14,2.39-6.63,1.83-9.76-1.54-.51-.55-1.02-1.1-1.49-1.68-8.77-10.77-17.71-21.42-26.21-32.41-2.55-3.3-4.89-5.27-9.08-3.94-.16.05-.32.08-.86.22ZM370.2,201.87c-1.31-5.44,4.42-3.54,6.39-6.24-1.14-.07-1.92-.15-2.7-.15-5.32,0-10.65.03-15.97,0-2.89-.02-3.78-1.26-3.32-4.09.88-5.4,3.95-9.63,7.28-13.68a64.146,64.146,0,0,0,13.62-27.08c.65-2.93.99-5.94,1.47-8.87h-7.58c-.17.44-.35.89-.53,1.35-2.88,7.22-5.35,14.64-8.73,21.61-4.19,8.65-9.33,16.84-13.68,25.42-2.3,4.54-4.61,8.81-9.4,11.13-.1.05-.09.29-.16.54a66.94,66.94,0,0,0,33.33.07Zm483.03-45.38a8.67,8.67,0,0,0-.24.84,115.124,115.124,0,0,1-24.46,53.77c-.8.98-1.76,3.05-1.36,3.54.86,1.03,2.56,1.38,3.94,1.92a2.6,2.6,0,0,0,1.23-.06c7.29-1.13,14.62-2.06,21.86-3.48,5.49-1.08,10.85-2.78,16.34-4.23-.37-1.26-.61-2.07-.87-2.96-1.46.36-2.76.62-4.02,1.02a22.515,22.515,0,0,1-2.97,1.2c-1.15.19-3.08.43-3.44-.14-1.55-2.43-3.45-1.3-5.28-.95-1.79.35-3.53,1.09-5.32,1.19-1.33.07-3.13-.22-3.91-1.09-.58-.64-.26-2.69.34-3.72a126.493,126.493,0,0,0,13.66-33.25c1.04-4.21,1.78-8.49,2.68-12.88-3.05-.28-5.52-.5-8.2-.74ZM585.11,199.1c6.11-14.64,10.72-29.36,12.81-44.86-1.68-.22-2.21.4-2.46,1.95a109.063,109.063,0,0,1-2.43,12.19c-1.47,5.26-3.29,10.43-5.14,15.58-.99,2.76-3.98,3.51-5.12,1.35-3.07-5.8-7.92-10.02-12.4-14.58s-8.24-9.56-8.81-16.22c-.33.02-.53-.02-.64.06q-.81.585-1.56,1.23a109.961,109.961,0,0,0-19.74,22.07c-.9,1.33-1.46,2.53.03,3.54,1.3.88,2.69,2.32,4.49.65,3.77-3.5,7.66-6.88,11.35-10.46,2.26-2.19,4.06-2.1,5.47.65.27.52.48,1.06.75,1.58a62.051,62.051,0,0,0,23.4,25.27ZM8.25,122.94a44.506,44.506,0,0,1,17.46-16.36c6.41-3.47,13.08-6.48,19.73-9.47,8.03-3.62,16.04-7.17,23.16-12.54,3.59-2.71,4.24-5.87,3.62-10.03-.72.35-1.31.62-1.9.91C53.75,83.51,37.15,91.53,20.61,99.66c-3.77,1.85-7.43,2.81-11.4.8a5.179,5.179,0,0,0-1.26-.22c-.54,2.81-1.08,5.54-1.54,8.27-.04.24.43.64.74.87,2.09,1.56,1.44,3.34.26,4.96-2.47,3.38-2.34,5.61.83,8.61Zm947.22-40.4c0,4.65-.06,8.53.06,12.4a3.206,3.206,0,0,0,1.25,1.91c2.9,2.49,5.93,4.84,8.81,7.35,8.7,7.62,16.46,16,21.04,26.84.93,2.21,1.52,4.55,2.35,6.81.67,1.84,1.51,3.59,3.96,4.15-1.87-2.78-1.78-4.49.32-5.23a5.273,5.273,0,0,1,3.08.18c1.5.46,1.96.1,1.92-1.45s.14-3.1.25-5.03c-.2-.43-1.16-1.48-.94-2.15.77-2.32-.81-3.5-1.92-4.94-1.18-1.51-2.4-2.98-3.61-4.46-7.98-9.8-15.64-19.9-25.43-28.04-3.41-2.84-7.11-5.34-11.14-8.34ZM681.41,187.41a13.184,13.184,0,0,1-3.17-1.76c-1.4-1.39-2.55-1.48-3.54.23-2.32,4-4.51,8.08-6.86,12.06a6.781,6.781,0,0,1-2.6,2.88c-1.63.69-2.67-.67-3.54-2a220.735,220.735,0,0,0-33.17-39.13c-.88-.83-2.35-1.03-4.16-1.78a10.564,10.564,0,0,0,.69,1.41q18.6,22.5,37.23,44.99c1.68,2.02,1.6,3.22-.62,4.89a5.024,5.024,0,0,0-.63.71c2.2.91,2.78.89,4.77-1.68,5.32-6.91,10.48-13.94,15.62-20.8ZM514.71,68.51c.23-1.51.48-3.18.75-4.95a149.472,149.472,0,0,0-40.62-1.17v7.34c13.51-.41,26.84-.82,39.86-1.22ZM522,76.55l.46.55c.56-.1,1.11-.19,1.67-.3,3.65-.75,7.3-2.12,10.95-2.13,10.39-.03,20.79.45,31.18.82,2.61.09,2.6.25,3.15-2.49-14.44-2.82-29.68-2.22-43.23-9.88a5.582,5.582,0,0,0,1.39,3.15c1.56,1.59,1.66,3.63-.21,4.26-3.17,1.06-2.92,4.57-5.36,6.03Zm415.64-5.07c-3.11,1.43-6.42,2.96-10.08,4.64,4.02,2.32,9.89,2.64,12.41,1.16-.72-1.81-1.43-3.57-2.33-5.8Z"/>
          <path id="Trazado_188" data-name="Trazado 188" d="M255.22,79.94c1.71-.55,3.01-1.07,4.35-1.38,3.82-.88,5.07-2.56,4.47-5.39,1.15-1.8,2.05-3.22,2.95-4.63l-.4-.85c6.98,0,13.97.09,20.95-.02,15.32-.25,30.64-.59,45.97-.91q23.82-.48,47.64-.99c.67-.01,1.55.17,1.95-.17.96-.82,2.27-1.87,2.35-2.9.06-.8-1.4-1.95-2.42-2.53-.69-.39-1.79-.1-2.71-.08q-18.615.435-37.22.88c-1.23.03-2.46,0-3.89,0a37.534,37.534,0,0,1,3.85-15.93c5.39-11.69,14.19-20.24,25.23-26.48A92.638,92.638,0,0,1,412.07,6.54a29.541,29.541,0,0,1,16.69,4.24c9.33,5.78,18.54,11.75,27.72,17.77,8.11,5.32,11.11,13.56,11.61,22.65.58,10.53.81,21.11.48,31.65a60.023,60.023,0,0,1-7.56,27.11c-6.82,12.45-18.03,18.75-31.25,21.95a89.562,89.562,0,0,1-17.93,2.72c-5.23.18-10.52-1.03-15.75-1.84-1.18-.18-2.21-1.29-3.31-1.97-.42-.26-.83-.76-1.24-.77-4.04,0-6.44-2.86-8.96-5.29-6.2-5.99-9.33-13.24-8.3-22.01.28-2.38-.68-3.85-2.59-4-2.33-.18-2.68,1.62-2.91,3.24-1.2,8.71,1.32,16.42,6.62,23.27,2.38,3.07,4.94,6,7.29,8.85-3.76,1.92-8.82,2.45-14.11,1.56-9.45-1.59-15.47-7.74-19.98-15.53-6.49-11.23-11.2-23.15-12.69-36.16a6.507,6.507,0,0,1,.1-1.07c8.34-.63,16.7-1.35,25.07-1.86,5.46-.33,10.95-.21,16.41-.54,6.21-.37,12.4-1.06,18.61-1.53,1.91-.15,3.54-.46,3.65-2.81.09-1.99-1.09-3.12-3.7-2.96-5.98.35-11.93.99-17.91,1.36-6.55.41-13.13.48-19.68,1.01q-17.4,1.41-34.75,3.23c-12.57,1.31-25.1,2.95-37.67,4.2-8.19.81-16.44,1.11-24.65,1.78-2.54.21-4.41-.09-4.84-3.06-.07-.5-.66-.92-1.33-1.81ZM454.55,43.61a12.5,12.5,0,0,0-11.52,5.46,10.212,10.212,0,0,1-1.3,1.49c-2.02,1.92-2.15,3.55.01,5.12a41.016,41.016,0,0,0,7.4,4.51,13.038,13.038,0,0,0,13.45-1.39c1.2-.85,2.03-2.28,3.28-3.01,2.31-1.35,2.42-3.3,1.23-5.06a15.483,15.483,0,0,0-4.99-4.94c-2.25-1.22-5.02-1.5-7.56-2.19Z" fill="#f8a936"/>
          <path id="Trazado_189" data-name="Trazado 189" d="M209.38,67.65H193.95c-.91,0-2.01-.18-2.68.25a3.957,3.957,0,0,0-1.83,2.52A3.637,3.637,0,0,0,191.13,73a6.373,6.373,0,0,0,3.15.42q28.59-.375,57.18-.81h2.08c-.45,1.01-.59,2.07-1.19,2.52-2.64,1.99-4.02,4.38-2.92,7.95H199.27c-.67,0-1.34-.03-2,.02-1.67.13-2.87.82-2.98,2.7-.11,2.04,1.12,2.94,2.9,2.99,3.91.1,7.81.03,12.27.03-.4,2.8-.41,5.49-1.2,7.93-6,18.62-16.76,33.42-34.67,42.32a18.833,18.833,0,0,1-18.29-.27c-3.42-1.84-3.47-1.69-6.01,1.31a3.843,3.843,0,0,1-1.68.96c-3.84,1.32-7.58,2.47-11.85,1.5-3.3-.75-6.94.03-10.24-.7A60.882,60.882,0,0,1,78.51,91.16c-.72-5.21-.22-10.59-.25-15.9-.03-4.6-.24-9.17.9-13.76,5.62-22.63,19.59-38.28,40.32-48.14,13.68-6.51,28.28-8.32,43.29-7.21,11.23.83,19.55,6.67,26.43,15.15a93.092,93.092,0,0,1,19.98,43.67c.15.87.13,1.77.2,2.66Zm-56.07-9.5c8.77-1.17,16.97-.76,22.87-7.92,2.45-2.98,2.92-4.25-.43-6.22-11.6-6.83-21.78-4.19-31.4,4.26a10.764,10.764,0,0,0-2.32,3.49c-.89,1.89-.41,3.52,1.73,4.1,3.42.93,6.89,1.65,9.54,2.28Zm-46.4,8.3c.02-.14.03-.28.05-.41,1.42,0,2.84.08,4.24-.01,5.64-.37,10.38-2.26,12.93-7.79.59-1.27,1.61-2.4,1.91-3.72.25-1.1.17-2.99-.51-3.47-3.29-2.31-7.03-4.44-11.09-3.75-8.37,1.42-15.63,5.05-20.2,12.69-1.56,2.6-.89,4.33,2.09,4.91,3.49.68,7.05,1.05,10.58,1.56Z" fill="#f8a936"/>
          <path id="Trazado_190" data-name="Trazado 190" d="M815.93,108.87c6.05-.82,11.8-1.59,17.55-2.38.82-.11,1.93-.07,2.36-.57a4.8,4.8,0,0,0,1.37-3.1c-.19-1.77-1.77-2.29-3.42-2.07-6.26.83-12.51,1.73-18.76,2.58q-17.28,2.355-34.58,4.68c-9.22,1.25-18.44,2.54-27.66,3.78-1.71.23-3.45.31-5.12.45-.39-1.57-.71-2.87-1.06-4.29,1.42-.56,3.5-.77,4.4-1.91.76-.97.16-3.01-.23-4.65,1.56-1.47,3.62-2.88,2.66-5.9a13.044,13.044,0,0,1,2.18-.35c13.22.38,26.43,1.02,39.65,1.14,15.75.14,31.44-.79,46.75-4.9a5.46,5.46,0,0,0,3.31-2.46c.87-1.93-1.43-3.73-3.82-3.26-6.19,1.22-12.37,2.46-18.56,3.62a43.265,43.265,0,0,1-4.37.37c3.67-16.43,9.03-31.57,23.87-41.2,6.83-4.44,13.45-9.33,20.67-13.01,4.68-2.38,10.21-3.46,15.49-4.24,11.53-1.71,22.92.02,34.06,3,13.23,3.53,22.41,12.26,28.97,23.97,1.32,2.36,2.41,4.86,3.77,7.62-8.29-1.07-14.95,1.98-21.15,6.21a15.546,15.546,0,0,0-3.96,4.62,2.246,2.246,0,0,0,1.13,3.51,67.444,67.444,0,0,0,10.33,3.31c6.46,1.22,12.43.12,17.49-5.28q.39,7.02.79,14.04c-2.78,2.79-.21,5.97-.66,8.87-3.4,21.9-14.28,38.32-35.22,47.19-2.75,1.17-5.53,2.26-8.29,3.41-1.3.54-2.32.76-3.48-.58-1.43-1.65-2.86-1.24-4.3.63a2.927,2.927,0,0,1-2.04,1.18c-4.21-.37-8.4-.91-12.59-1.44a2.149,2.149,0,0,1-2.12-2.17c-.32-2.2-2.2-2.95-4.15-1.8-8.02,4.73-16.59,4.68-25.3,2.82-20.71-4.42-30.64-18.9-35.37-38.14-.23-.95-.35-1.94-.59-3.3Zm95.33-26.09c.09.2.19.39.28.59.94-.54,2.23-.88,2.73-1.7a3.207,3.207,0,0,0-.09-2.97c-3.94-4.85-8.21-9.41-14.72-10.7-7.77-1.53-18.61,4.04-21.9,11.23-.35.76-.39,2.27.09,2.7,2.4,2.19,4.57,5.05,8.21,5.07a102.724,102.724,0,0,0,14.37-.48c3.1-.41,6.03-2.08,9.04-3.17.64-.23,1.32-.39,1.98-.58Z" fill="#f8a936"/>
          <path id="Trazado_191" data-name="Trazado 191" d="M743.88,101.77c-2.94,3.24-9.36,2.67-8.9,9.72-5.91,1.47-11.95,3.21-18.09,4.46a149.861,149.861,0,0,1-43.2,2.5c-7.06-.62-14.02-1.81-20.32-5.37-1.71-.96-3.23-.85-4.24.99-1.06,1.93-.05,3.11,1.61,4.02,6.84,3.78,14.31,5.25,21.98,5.88,4.55.38,9.13.52,14.19.79a66.865,66.865,0,0,1-2.72,6.65c-6.76,12.51-17.6,19.43-31.28,22.04-15.41,2.94-30.08-.38-44.31-6.13-8.26-3.34-11.51-10.21-11.87-18.59a93.467,93.467,0,0,1,.74-11.91,3.084,3.084,0,0,0-2.57-3.67c-1.9-.42-2.77.87-3,2.51-1.12,7.79-1.75,15.6,1.28,23.11,1.25,3.1,3.2,5.91,4.95,9.05-2.71,1.72-5.72,1.61-8.74.29a22.863,22.863,0,0,1-9.77-8.65,61.556,61.556,0,0,1-10.05-41.5,120.857,120.857,0,0,1,2.62-14.17,56.414,56.414,0,0,1,2.68-8.06,15.427,15.427,0,0,1,1.97-2.69,8.134,8.134,0,0,0,1.18-2.11c.53-1.66.6-3.53,1.41-5.02,5.7-10.48,12.04-20.51,23.59-25.48a189.252,189.252,0,0,1,21.66-8.08,61.961,61.961,0,0,1,41.75,2.16c12.73,5.2,21.93,13.81,26.06,27.06a266.61,266.61,0,0,1,6.84,26.19,27.007,27.007,0,0,1-2.41,17.73c-.92,1.84-2.02,2.28-3.94,1.86-11.59-2.55-23.2-5.01-34.8-7.51-.32-.07-.64-.2-.96-.25-1.79-.25-3.18.27-3.59,2.19s.46,2.92,2.38,3.33c9.01,1.93,17.98,4,27,5.87,4.79,1,9.62,1.78,14.45,2.54,8.13,1.28,15.88-.52,23.46-3.24,6.95-2.5,13.84-5.16,20.76-7.74.74-.28,1.5-.52,2.25-.77ZM674.79,66.98c-6.31.24-12.37,3.15-17.84,7.42-1.93,1.5-1.92,3.47-.1,5.12a13.258,13.258,0,0,0,4.06,2.82,73.911,73.911,0,0,0,10.47,3c6.36,1.26,12.56.74,18.33-2.59,3.52-2.03,3.88-3.88,1.57-6.93-3.78-4.99-8.76-8.9-16.49-8.83Z" fill="#f8a936"/>
          <path id="Trazado_192" data-name="Trazado 192" d="M84.21,210.71c-.51-1.41-.95-2.61-1.4-3.87,2.84-2.61,2.76-3.39-1.38-6.95a36.17,36.17,0,0,1,3.74.32c5.12,1.05,10.21,2.23,15.33,3.24,6.57,1.3,10.7-1.72,11.29-8.43.51-5.87.41-11.8,1.06-17.66,1.18-10.61,2.71-21.18,4.09-31.78,5.28,1.14,9.89,2.13,14.81,3.19-.35,3.71-.61,7.65-1.11,11.56q-2.595,20.37-5.33,40.71a53.113,53.113,0,0,1-1.07,5.87c-.94,3.79-2.89,5.39-6.78,5.24-11.13-.41-22.26-.95-33.26-1.44Z" fill="#f8a936"/>
          <path id="Trazado_193" data-name="Trazado 193" d="M243.45,197.94c-.55,1.37-1.09,2.74-1.7,4.28-6.34,1.47-6.99,2.31-4.39,6.14a3.4,3.4,0,0,1-.94.3c-6.73-.07-13.48.11-20.19-.33-4.85-.32-6.89-2.52-7.92-7.22a15.273,15.273,0,0,0-5.04-8.68c-10.41-8.86-17.81-19.83-23.36-32.25-2.19-4.89-5.15-9.44-7.84-14.27,2.78-1.25,5.98-2.69,9.38-4.23,3.07,4.5,6.14,9.03,9.23,13.54,7.03,10.3,14.19,20.52,21.06,30.93,4.74,7.18,11.09,10.61,19.71,10.33,4.09-.13,8.2.44,12.3.69-.1.25-.21.51-.31.76Z" fill="#f8a936"/>
          <path id="Trazado_194" data-name="Trazado 194" d="M907.66,157.23c5.21-2.77,5.08-2.64,9.01,1.2q20.415,20.01,41,39.84c2.8,2.71,4.35,2.34,6.04-1.08.48-.97.99-1.92,1.55-2.84,2.87-4.64,3.19-4.86,7.07-5.67,1.38,1.4,2.28,2.31,3.55,3.6-5,7.8-13.78,13.56-20.86,21.43-15.86-18.91-31.55-37.62-47.37-56.48Z" fill="#f8a936"/>
          <path id="Trazado_195" data-name="Trazado 195" d="M412.36,140.65c.54-.14.7-.17.86-.22,4.19-1.34,6.53.63,9.08,3.94,8.5,10.99,17.43,21.64,26.21,32.41.47.58.98,1.13,1.49,1.68,3.13,3.37,5.62,3.92,9.76,1.54,5.54-3.19,10.9-6.7,16.35-10.05,1.17-.72,2.39-1.37,3.15-1.8.78,1.85,1.47,3.41,2.09,5a1.82,1.82,0,0,1-.07,1.1c-.71,2.19.23,3.51,2.41,4.41-.64.5-1.15.98-1.74,1.35-5.55,3.52-11.08,7.07-16.68,10.5a28.039,28.039,0,0,1-5.18,2.41c-5.71,2.02-9.72.55-13.09-4.47-6.2-9.25-12.28-18.59-18.76-27.65-4.6-6.42-9.77-12.42-14.69-18.61-.35-.44-.69-.88-1.2-1.53Z" fill="#f8a936"/>
          <path id="Trazado_196" data-name="Trazado 196" d="M370.2,201.87a66.94,66.94,0,0,1-33.33-.07c.07-.25.07-.5.16-.54,4.8-2.32,7.1-6.59,9.4-11.13,4.35-8.58,9.49-16.77,13.68-25.42,3.38-6.98,5.86-14.39,8.73-21.61.18-.45.36-.91.53-1.35h7.58c-.48,2.93-.82,5.93-1.47,8.87a64.146,64.146,0,0,1-13.62,27.08c-3.33,4.05-6.4,8.28-7.28,13.68-.46,2.83.43,4.07,3.32,4.09,5.32.04,10.65,0,15.97,0,.78,0,1.56.08,2.7.15-1.97,2.7-7.7.81-6.39,6.24Z" fill="#f8a936"/>
          <path id="Trazado_197" data-name="Trazado 197" d="M853.23,156.49c2.67.24,5.14.46,8.2.74-.91,4.39-1.64,8.67-2.68,12.88a126.3,126.3,0,0,1-13.66,33.25c-.6,1.03-.92,3.07-.34,3.72.78.86,2.58,1.16,3.91,1.09a40.29,40.29,0,0,0,5.32-1.19c1.83-.36,3.73-1.48,5.28.95.36.57,2.29.33,3.44.14a23.968,23.968,0,0,0,2.97-1.2c1.26-.4,2.56-.66,4.02-1.02.26.88.5,1.69.87,2.96-5.5,1.45-10.86,3.16-16.34,4.23-7.23,1.42-14.57,2.35-21.86,3.48a2.6,2.6,0,0,1-1.23.06c-1.39-.55-3.09-.9-3.94-1.92-.41-.49.56-2.56,1.36-3.54a115.124,115.124,0,0,0,24.46-53.77c.04-.23.13-.46.24-.84Z" fill="#f8a936"/>
          <path id="Trazado_198" data-name="Trazado 198" d="M585.11,199.1a62.051,62.051,0,0,1-23.4-25.27c-.26-.52-.48-1.06-.75-1.58-1.41-2.75-3.2-2.84-5.47-.65-3.7,3.58-7.58,6.96-11.35,10.46-1.8,1.67-3.2.23-4.49-.65-1.49-1.01-.93-2.21-.03-3.54a109.69,109.69,0,0,1,19.74-22.07q.765-.645,1.56-1.23c.11-.08.31-.03.64-.06.58,6.66,4.32,11.65,8.81,16.22s9.33,8.78,12.4,14.58c1.14,2.16,4.13,1.41,5.12-1.35,1.85-5.14,3.66-10.32,5.14-15.58a109.049,109.049,0,0,0,2.43-12.19c.25-1.55.78-2.17,2.46-1.95-2.09,15.5-6.7,30.22-12.81,44.86Z" fill="#f8a936"/>
          <path id="Trazado_199" data-name="Trazado 199" d="M8.25,122.94c-3.17-3.01-3.3-5.24-.83-8.61,1.18-1.62,1.83-3.4-.26-4.96-.31-.23-.78-.62-.74-.87.46-2.74,1-5.46,1.54-8.27a5.853,5.853,0,0,1,1.26.22c3.97,2,7.63,1.05,11.4-.8C37.16,91.52,53.75,83.5,70.33,75.44c.58-.28,1.17-.56,1.9-.91.62,4.15-.03,7.31-3.62,10.03-7.12,5.38-15.12,8.93-23.16,12.54-6.65,2.99-13.32,6-19.73,9.47A44.511,44.511,0,0,0,8.26,122.93Z" fill="#f8a936"/>
          <path id="Trazado_200" data-name="Trazado 200" d="M955.47,82.54c4.03,3,7.73,5.5,11.14,8.34,9.79,8.14,17.44,18.25,25.43,28.04,1.21,1.48,2.43,2.95,3.61,4.46,1.12,1.43,2.69,2.61,1.92,4.94-.22.67.73,1.72.94,2.15-.11,1.93-.3,3.49-.25,5.03s-.42,1.91-1.92,1.45a5.356,5.356,0,0,0-3.08-.18c-2.1.74-2.19,2.45-.32,5.23-2.44-.56-3.28-2.31-3.96-4.15-.83-2.25-1.42-4.6-2.35-6.81-4.58-10.84-12.34-19.22-21.04-26.84-2.88-2.52-5.9-4.86-8.81-7.35a3.264,3.264,0,0,1-1.25-1.91c-.12-3.87-.06-7.74-.06-12.4Z" fill="#f8a936"/>
          <path id="Trazado_201" data-name="Trazado 201" d="M681.41,187.41c-5.14,6.87-10.3,13.9-15.62,20.8-1.98,2.57-2.56,2.59-4.77,1.68a5.655,5.655,0,0,1,.63-.71c2.22-1.67,2.3-2.86.62-4.89q-18.645-22.47-37.23-44.99a11.389,11.389,0,0,1-.69-1.41c1.81.75,3.28.95,4.16,1.78a221.091,221.091,0,0,1,33.17,39.13c.87,1.33,1.92,2.7,3.54,2a6.718,6.718,0,0,0,2.6-2.88c2.35-3.98,4.54-8.06,6.86-12.06.99-1.71,2.14-1.62,3.54-.23a14.122,14.122,0,0,0,3.17,1.76Z" fill="#f8a936"/>
          <path id="Trazado_202" data-name="Trazado 202" d="M514.71,68.51c-13.02.4-26.36.8-39.86,1.22V62.39a149.885,149.885,0,0,1,40.62,1.17c-.27,1.77-.52,3.44-.75,4.95Z" fill="#f8a936"/>
          <path id="Trazado_203" data-name="Trazado 203" d="M522,76.55c2.44-1.46,2.19-4.97,5.36-6.03,1.87-.63,1.77-2.66.21-4.26a5.618,5.618,0,0,1-1.39-3.15c13.56,7.67,28.79,7.06,43.23,9.88-.55,2.74-.54,2.58-3.15,2.49-10.39-.37-20.79-.85-31.18-.82-3.65.01-7.3,1.38-10.95,2.13-.55.11-1.11.2-1.67.3l-.46-.55Z" fill="#f8a936"/>
          <path id="Trazado_204" data-name="Trazado 204" d="M937.64,71.48c.9,2.23,1.6,4,2.33,5.8-2.52,1.48-8.38,1.16-12.41-1.16,3.66-1.68,6.97-3.21,10.08-4.64Z" fill="#fff"/>
          <path id="Trazado_205" data-name="Trazado 205" d="M454.55,43.61c2.54.69,5.31.96,7.56,2.19a15.583,15.583,0,0,1,4.99,4.94c1.19,1.75,1.09,3.71-1.23,5.06-1.25.73-2.08,2.16-3.28,3.01a13.038,13.038,0,0,1-13.45,1.39,41.016,41.016,0,0,1-7.4-4.51c-2.16-1.57-2.03-3.2-.01-5.12a10.208,10.208,0,0,0,1.3-1.49,12.5,12.5,0,0,1,11.52-5.46Zm-7.15,9.24c2.33,1.69,4.7,3.06,7.5,2.69-.18-2.1-.34-3.93-.5-5.84a5.885,5.885,0,0,0-7,3.14Z"/>
          <path id="Trazado_206" data-name="Trazado 206" d="M153.31,58.15c-2.66-.63-6.13-1.35-9.54-2.28-2.14-.58-2.62-2.21-1.73-4.1a10.5,10.5,0,0,1,2.32-3.49c9.62-8.46,19.8-11.1,31.4-4.26,3.34,1.97,2.88,3.24.43,6.22-5.89,7.16-14.09,6.75-22.87,7.92Zm17.81-10.22c-6.38-2.94-12.02-2.86-17.5.75.33,1.16.64,2.23.99,3.46C160.25,51.95,165.78,51.47,171.12,47.93Z"/>
          <path id="Trazado_207" data-name="Trazado 207" d="M106.91,66.45c-3.53-.51-7.08-.88-10.58-1.56-2.98-.58-3.65-2.31-2.09-4.91,4.57-7.64,11.83-11.27,20.2-12.69,4.06-.69,7.8,1.44,11.09,3.75.68.48.76,2.37.51,3.47-.3,1.32-1.32,2.45-1.91,3.72-2.55,5.53-7.29,7.42-12.93,7.79-1.41.09-2.83.01-4.24.01-.02.14-.03.28-.05.41Zm-.39-6.06c7.72.56,12.28-1.4,12.84-6.35-5.15-2.71-9.27.19-13.54,2.33.26,1.49.48,2.76.7,4.02Z"/>
          <path id="Trazado_208" data-name="Trazado 208" d="M911.26,82.78c-.66.19-1.33.35-1.98.58-3.01,1.09-5.94,2.76-9.04,3.17a104.274,104.274,0,0,1-14.37.48c-3.65-.03-5.81-2.89-8.21-5.07-.48-.43-.44-1.94-.09-2.7,3.28-7.18,14.13-12.76,21.9-11.23,6.51,1.29,10.78,5.85,14.72,10.7a3.238,3.238,0,0,1,.09,2.97c-.49.82-1.78,1.15-2.73,1.7-.09-.2-.19-.39-.28-.59Zm-27.72-2.6c5.58,2.36,10.72,1.24,15.35,1.02V73.56C893.15,72.78,888.27,75.2,883.54,80.18Z"/>
          <path id="Trazado_209" data-name="Trazado 209" d="M674.79,66.98c7.73-.07,12.71,3.85,16.49,8.83,2.31,3.05,1.95,4.9-1.57,6.93-5.77,3.33-11.97,3.85-18.33,2.59a74.867,74.867,0,0,1-10.47-3,13.258,13.258,0,0,1-4.06-2.82c-1.82-1.64-1.83-3.61.1-5.12,5.47-4.27,11.53-7.18,17.84-7.42Zm5.4,6.99c-4.2-2.5-12.68-.83-16.91,3.36a37.22,37.22,0,0,0,17.48,2.7c-2.94-2.26-2.39-4.2-.58-6.05Z"/>
          <path id="Trazado_210" data-name="Trazado 210" d="M447.4,52.85a5.87,5.87,0,0,1,7-3.14c.16,1.91.32,3.74.5,5.84-2.8.37-5.17-1-7.5-2.69Z" fill="#fff"/>
          <path id="Trazado_211" data-name="Trazado 211" d="M171.12,47.93c-5.35,3.54-10.87,4.02-16.51,4.21-.35-1.23-.65-2.3-.99-3.46C159.1,45.07,164.74,44.99,171.12,47.93Z" fill="#fff"/>
          <path id="Trazado_212" data-name="Trazado 212" d="M106.52,60.39c-.22-1.26-.44-2.53-.7-4.02,4.27-2.15,8.39-5.05,13.54-2.33-.56,4.96-5.12,6.92-12.84,6.35Z" fill="#fff"/>
          <path id="Trazado_213" data-name="Trazado 213" d="M883.54,80.18c4.72-4.98,9.6-7.4,15.35-6.62V81.2C894.26,81.42,889.13,82.55,883.54,80.18Z" fill="#fff"/>
          <path id="Trazado_214" data-name="Trazado 214" d="M680.19,73.97c-1.81,1.86-2.37,3.8.58,6.05a37.2,37.2,0,0,1-17.48-2.7c4.23-4.19,12.71-5.86,16.91-3.36Z" fill="#fff"/>
        </g>
      </g>
    </g>
    <rect id="Rectángulo_44" data-name="Rectángulo 44" width="1366" height="321" transform="translate(0 5208)" fill="none"/>
  </g>
</svg>
